<svg id="SvgjsSvg1001" width="288" height="288" xmlns="http://www.w3.org/2000/svg" version="1.1" xmlns:xlink="http://www.w3.org/1999/xlink" xmlns:svgjs="http://svgjs.com/svgjs"><defs id="SvgjsDefs1002"></defs><g id="SvgjsG1008" transform="matrix(0.9167,0,0,0.9167,12.634233504486076,11.514894560670854)"><svg xmlns="http://www.w3.org/2000/svg" width="288" height="288" version="1.0" viewBox="0 0 146 148"><path d="M377 1429 c-143 -34 -254 -168 -265 -319 -6 -91 11 -178 55 -270 32-67 363 -571 434 -662 39 -49 102 -78 167 -78 67 0 108 18 154 66 56 59 403
581 447 673 68 141 78 286 26 396 -38 80 -128 159 -211 185 -61 19 -91 20
-418 19 -193 -1 -368 -5 -389 -10z m714 -119 c51 -10 99 -35 106 -56 2 -5 -59
-8 -153 -6 -156 3 -431 -18 -524 -40 -65 -16 -134 -52 -163 -88 -62 -73 -45
-199 57 -425 19 -44 36 -74 36 -67 1 36 91 517 98 524 21 21 45 -15 127 -193
49 -104 91 -189 94 -189 3 0 47 86 96 192 50 105 95 193 100 195 6 1 15 -1 22
-5 12 -8 115 -570 107 -584 -3 -4 -27 -8 -54 -8 -58 0 -52 -12 -81 175 -11 77
-22 141 -23 142 -1 2 -33 -67 -71 -152 -68 -156 -84 -181 -107 -172 -7 3 -44
75 -82 161 -41 93 -72 152 -76 144 -4 -7 -15 -67 -24 -133 -22 -152 -27 -165
-66 -165 -30 0 -42 -21 -20 -35 6 -3 10 -12 10 -18 -2 -41 -210 298 -245 398
-31 89 -34 209 -6 271 30 66 105 113 216 137 42 9 575 7 626 -3z m-567 -846
c5 -14 4 -15 -9 -4 -17 14 -19 20 -6 20 5 0 12 -7 15 -16z" transform="matrix(.1 0 0 -.1 0 148)" fill="#ffffff" class="color000 svgShape"></path></svg></g></svg>